<svg viewBox="0 0 131 44" fill="none" xmlns="http://www.w3.org/2000/svg">
    <path fill-rule="evenodd" clip-rule="evenodd" d="M69.6744 16.8198V23.3681C69.6744 24.3024 69.8297 24.9849 70.1404 25.4167C70.6049 26.0414 71.2576 26.3535 72.0996 26.3535C72.9457 26.3535 73.601 26.0414 74.0655 25.4167C74.3762 24.9992 74.5316 24.3162 74.5316 23.3681V16.8198H76.203V23.8184C76.203 24.9639 75.8396 25.9074 75.1129 26.6492C74.2944 27.4755 73.2903 27.8884 72.0996 27.8884C70.9084 27.8884 69.9064 27.4755 69.0931 26.6492C68.3664 25.9074 68.003 24.9639 68.003 23.8184V16.8198H69.6744Z" fill="#2E77FF"/>
    <path fill-rule="evenodd" clip-rule="evenodd" d="M82.7959 18.3614V27.6909H81.124V18.3614H78.5773V16.8193H85.3353V18.3614H82.7959Z" fill="#2E77FF"/>
    <path fill-rule="evenodd" clip-rule="evenodd" d="M100.501 22.2273C100.501 23.4291 100.912 24.417 101.735 25.1916C102.553 25.9662 103.498 26.353 104.569 26.353C105.731 26.353 106.712 25.9591 107.51 25.1707C108.309 24.3725 108.708 23.4009 108.708 22.2554C108.708 21.096 108.314 20.1245 107.525 19.3407C106.74 18.5517 105.77 18.1573 104.612 18.1573C103.459 18.1573 102.486 18.5517 101.692 19.3407C100.898 20.1194 100.501 21.0817 100.501 22.2273ZM98.8147 22.2063C98.8147 20.676 99.386 19.3616 100.53 18.2632C101.668 17.1647 103.036 16.6157 104.633 16.6157C106.212 16.6157 107.565 17.1693 108.694 18.277C109.828 19.3852 110.394 20.7159 110.394 22.2692C110.394 23.8327 109.826 25.1589 108.687 26.2476C107.544 27.3415 106.164 27.8879 104.547 27.8879C103.117 27.8879 101.833 27.4024 100.695 26.4308C99.4418 25.3559 98.8147 23.9474 98.8147 22.2063Z" fill="#2E77FF"/>
    <path fill-rule="evenodd" clip-rule="evenodd" d="M115.05 21.8118H115.581C117.164 21.8118 117.956 21.2183 117.956 20.0308C117.956 18.918 117.186 18.3619 115.646 18.3619H115.05V21.8118ZM117.131 23.0581L120.56 27.6914H118.516L115.352 23.2413H115.05V27.6914H113.379V16.8198H115.337C116.801 16.8198 117.858 17.0895 118.508 17.6297C119.226 18.2304 119.585 19.0234 119.585 20.0093C119.585 20.7793 119.36 21.4408 118.91 21.9949C118.461 22.549 117.868 22.9031 117.131 23.0581Z" fill="#2E77FF"/>
    <mask id="mask0" mask-type="alpha" maskUnits="userSpaceOnUse" x="121" y="16" width="10" height="12">
    <path d="M130.159 27.6909V16.8198H121.241V27.6909H130.159Z" fill="white"/>
    </mask>
    <g mask="url(#mask0)">
    <path fill-rule="evenodd" clip-rule="evenodd" d="M124.857 22.9947L121.241 16.8198H123.164L125.696 21.1641L128.236 16.8198H130.159L126.529 22.9947V27.6909H124.857V22.9947Z" fill="#2E77FF"/>
    </g>
    <path fill-rule="evenodd" clip-rule="evenodd" d="M60.8721 16.1367L55.3908 27.6913H57.1915L60.8429 19.8123L64.33 27.6913H66.1599L60.8721 16.1367Z" fill="#2E77FF"/>
    <path fill-rule="evenodd" clip-rule="evenodd" d="M64.0574 23.0972C62.9902 23.3351 61.8902 23.4604 60.774 23.4604C59.6834 23.4604 58.6069 23.3422 57.5621 23.1146L56.8438 24.6285C58.1179 24.9354 59.4353 25.1002 60.774 25.1002C62.13 25.1002 63.4636 24.9314 64.7528 24.6167L64.0574 23.0972Z" fill="#2E77FF"/>
    <path fill-rule="evenodd" clip-rule="evenodd" d="M87.7098 27.6909H89.3812V16.8193H87.7098V27.6909Z" fill="#2E77FF"/>
    <path fill-rule="evenodd" clip-rule="evenodd" d="M94.1597 27.6909H95.8311V16.8193H94.1597V27.6909Z" fill="#2E77FF"/>
    <path fill-rule="evenodd" clip-rule="evenodd" d="M91.7695 21.0231C90.3807 21.0231 89.0164 20.8302 87.7094 20.4644V22.1599C89.0237 22.4873 90.3854 22.6628 91.7695 22.6628C93.1542 22.6628 94.5164 22.4873 95.8312 22.1594V20.4644C94.5237 20.8302 93.1589 21.0231 91.7695 21.0231Z" fill="#2E77FF"/>
    <mask id="mask1" mask-type="alpha" maskUnits="userSpaceOnUse" x="0" y="0" width="45" height="44">
    <path d="M44.8342 21.9999V43.9999H0V21.9999V0H44.8342V21.9999Z" fill="white"/>
    </mask>
    <g mask="url(#mask1)">
    <path fill-rule="evenodd" clip-rule="evenodd" d="M22.4171 41.9293C11.2198 41.9293 2.11001 32.989 2.11001 22C2.11001 11.011 11.2198 2.07075 22.4171 2.07075C33.6145 2.07075 42.7242 11.011 42.7242 22C42.7242 32.989 33.6145 41.9293 22.4171 41.9293ZM22.4171 0C10.0366 0 0 9.84981 0 22C0 34.1502 10.0366 44 22.4171 44C34.7977 44 44.8342 34.1502 44.8342 22C44.8342 9.84981 34.7977 0 22.4171 0Z" fill="#2E77FF"/>
    </g>
    <path fill-rule="evenodd" clip-rule="evenodd" d="M23.9995 15.9182C23.9995 16.7749 23.2899 17.4713 22.417 17.4713C21.5449 17.4713 20.8345 16.7749 20.8345 15.9182C20.8345 15.0616 21.5449 14.3652 22.417 14.3652C23.2899 14.3652 23.9995 15.0616 23.9995 15.9182ZM25.4546 17.9739L27.1239 20.8119C25.8567 21.9861 24.1782 22.6475 22.417 22.6475C20.6566 22.6475 18.9781 21.9861 17.7108 20.8119L19.3802 17.9739C20.0471 18.9199 21.1589 19.542 22.417 19.542C23.6752 19.542 24.7876 18.9199 25.4546 17.9739ZM9.47466 30.6706H11.9104L16.6334 22.6427C18.2397 23.975 20.2825 24.7182 22.417 24.7182C24.5523 24.7182 26.5943 23.975 28.2014 22.6427L32.9237 30.6706H35.3601L22.417 8.66992L9.47466 30.6706Z" fill="#2E77FF"/>
</svg>
